<mxfile host="65bd71144e">
    <diagram id="0vgVF-1DzY3rstgfP206" name="Page-1">
        <mxGraphModel dx="1253" dy="802" grid="1" gridSize="10" guides="1" tooltips="1" connect="1" arrows="1" fold="1" page="1" pageScale="1" pageWidth="850" pageHeight="1100" math="0" shadow="0">
            <root>
                <mxCell id="0"/>
                <mxCell id="1" parent="0"/>
                <mxCell id="17" value="" style="shape=callout;whiteSpace=wrap;html=1;perimeter=calloutPerimeter;fontSize=18;size=25;position=0.15;position2=0;base=25;" parent="1" vertex="1">
                    <mxGeometry x="702.5" y="265" width="120" height="80" as="geometry"/>
                </mxCell>
                <mxCell id="11" value="&lt;p style=&quot;line-height: 90%;&quot;&gt;&lt;br&gt;&lt;/p&gt;" style="shape=callout;whiteSpace=wrap;html=1;perimeter=calloutPerimeter;fontSize=48;position2=0.09;size=30;position=0.11;" parent="1" vertex="1">
                    <mxGeometry x="175" y="140" width="500" height="170" as="geometry"/>
                </mxCell>
                <mxCell id="2" value="&lt;span style=&quot;font-size: 36px;&quot;&gt;Why is a finite state machine?&lt;/span&gt;" style="text;html=1;strokeColor=none;fillColor=none;align=center;verticalAlign=middle;whiteSpace=wrap;rounded=0;" parent="1" vertex="1">
                    <mxGeometry x="180" width="530" height="60" as="geometry"/>
                </mxCell>
                <mxCell id="3" value="" style="endArrow=none;html=1;fontSize=36;exitX=0;exitY=1;exitDx=0;exitDy=0;entryX=1;entryY=1;entryDx=0;entryDy=0;" parent="1" source="2" target="2" edge="1">
                    <mxGeometry width="50" height="50" relative="1" as="geometry">
                        <mxPoint x="330" y="200" as="sourcePoint"/>
                        <mxPoint x="380" y="150" as="targetPoint"/>
                    </mxGeometry>
                </mxCell>
                <mxCell id="4" value="&lt;font style=&quot;font-size: 24px;&quot;&gt;All states and actions are known in a finite state machine&lt;/font&gt;" style="text;html=1;strokeColor=none;fillColor=none;align=center;verticalAlign=middle;whiteSpace=wrap;rounded=0;" parent="1" vertex="1">
                    <mxGeometry x="160" y="70" width="657.5" height="30" as="geometry"/>
                </mxCell>
                <mxCell id="5" value="&lt;font style=&quot;font-size: 18px;&quot;&gt;Machine cannot be in an unknown state&lt;/font&gt;" style="text;html=1;strokeColor=none;fillColor=none;align=center;verticalAlign=middle;whiteSpace=wrap;rounded=0;fontSize=18;" parent="1" vertex="1">
                    <mxGeometry x="150" y="100" width="400" height="30" as="geometry"/>
                </mxCell>
                <mxCell id="9" value="&lt;span style=&quot;font-size: 48px;&quot;&gt;🤓&lt;/span&gt;" style="text;html=1;strokeColor=none;fillColor=none;align=center;verticalAlign=middle;whiteSpace=wrap;rounded=0;" parent="1" vertex="1">
                    <mxGeometry x="620" y="320" width="90" height="60" as="geometry"/>
                </mxCell>
                <mxCell id="10" value="&lt;span style=&quot;font-size: 48px;&quot;&gt;💡&lt;/span&gt;" style="text;html=1;strokeColor=none;fillColor=none;align=center;verticalAlign=middle;whiteSpace=wrap;rounded=0;rotation=15;" parent="1" vertex="1">
                    <mxGeometry x="630" y="265" width="90" height="60" as="geometry"/>
                </mxCell>
                <mxCell id="12" value="&lt;font style=&quot;font-size: 48px;&quot;&gt;🤖&lt;/font&gt;" style="text;html=1;strokeColor=none;fillColor=none;align=center;verticalAlign=middle;whiteSpace=wrap;rounded=0;" parent="1" vertex="1">
                    <mxGeometry x="100" y="310" width="90" height="60" as="geometry"/>
                </mxCell>
                <mxCell id="13" value="" style="ellipse;whiteSpace=wrap;html=1;aspect=fixed;rounded=1;shadow=1;sketch=0;" parent="1" vertex="1">
                    <mxGeometry x="180" y="315" width="70" height="70" as="geometry"/>
                </mxCell>
                <mxCell id="14" value="" style="shape=image;verticalLabelPosition=bottom;labelBackgroundColor=default;verticalAlign=top;aspect=fixed;imageAspect=0;image=data:image/png,iVBORw0KGgoAAAANSUhEUgAAACAAAAAgCAMAAABEpIrGAAABFFBMVEUAAAAAAAAYCQAsGQAxDgA0NDQ3HgA6IgA8GgA9HQA/JQBDIwBEJABHNQdPMwBUOwBWPwBWQQBcRABcRBNcSQBeTQBgRwBhUAtiTwBiUABjUABkUwBkVQBlUgBmZmZoUhtvYDBwYh10aTV1Yy91aDt6azF8bzJ9bTN9cDN+cDl+cEN+cTqCdUWEdUCFeECGekeHeUaNgk+Ng02PhFKRg0+ShFCWi1iXiVeajlqcj12ck2Kell+glmShl2OhmGSlnGenoWypn22po3Gso3Gso3OupHeup3Wxqnixq3qyq3myrHu1rX21rn+3r4W3soW8t4vBvI/Dv5PFwZXHwprLx5vNy6PT0Kvf2rbi3brv6s7299v////yZfJsAAAAAXRSTlMAQObYZgAAAVJJREFUeNrNkNlSwkAQRWkTxBhsNAaNZkTbDRTiOoA6rrgBSoIGFOX//8OJWAUklfLN8ryeU3eWxP8B4Bfv+jKB+AxEQQh0/R7EBQXhu6KAblywKPznnosFAXEn9JvvLbkRcws48OBD9Ft+jVtcNlEvup+9DnRbwuKXD1WCaJBLvnld71pw6/S1cREtRDLndbz7o5LFzx/bVwKjRU1SKSEXvHlS5xS9xmqlUlrA7fKNXa7LikHIG6Sl08T39l8y61wuOPMwHqxUt9BgxA5vU7YdLGyEJ86elhTMFNubKXRILhggGQ3W7nYUjURxEh07KJZJNPTRBHaPp2c4KWjbeXKIGUgUKuZAJUVBNFmemDkFANgYPyUBqqJpJprIZvUJkHAIvQVRVTCLDHUI0HnIEydQ1aCAb7gOY55LL0HKDp6oU/gvJD87gYGhj+wMzNBHd/6YL244MEYzbemVAAAAAElFTkSuQmCC;" parent="1" vertex="1">
                    <mxGeometry x="190" y="322" width="53" height="53" as="geometry"/>
                </mxCell>
                <mxCell id="15" value="&lt;span style=&quot;font-size: medium;&quot;&gt;A finite state machine simply means there are a known set of states and a known set of actions and the machine can only be in those states or take those actions. It makes it a lot easier to reason about processes with many moving parts!&lt;/span&gt;" style="text;html=1;strokeColor=none;fillColor=none;align=center;verticalAlign=middle;whiteSpace=wrap;rounded=0;fontSize=18;" parent="1" vertex="1">
                    <mxGeometry x="190" y="140" width="410" height="150" as="geometry"/>
                </mxCell>
                <mxCell id="16" value="なるほど‼" style="text;html=1;strokeColor=none;fillColor=none;align=center;verticalAlign=middle;whiteSpace=wrap;rounded=0;fontSize=18;" parent="1" vertex="1">
                    <mxGeometry x="705" y="277" width="110" height="30" as="geometry"/>
                </mxCell>
                <mxCell id="18" value="&lt;b&gt;GPT&lt;/b&gt;" style="text;html=1;strokeColor=none;fillColor=none;align=center;verticalAlign=middle;whiteSpace=wrap;rounded=0;fontSize=18;" parent="1" vertex="1">
                    <mxGeometry x="115" y="280" width="60" height="30" as="geometry"/>
                </mxCell>
            </root>
        </mxGraphModel>
    </diagram>
</mxfile>